<svg width="66" height="110" viewBox="0 0 66 110" fill="none" xmlns="http://www.w3.org/2000/svg">
<rect width="66" height="110" rx="33" fill="#353439"/>
<g clip-path="url(#clip0)">
<path d="M32.8408 80.7717L28.2337 84.6738C28.0211 84.854 27.6732 84.8565 27.4567 84.6795L25.7655 83.2961C25.549 83.1191 25.546 82.8296 25.7587 82.6494L30.3658 78.7474C30.5785 78.5672 30.9263 78.5647 31.1428 78.7417L32.834 80.125C33.0505 80.3021 33.0535 80.5916 32.8408 80.7717Z" fill="#F1F1F1"/>
<path d="M47.7411 79.1601L42.5575 83.4932C41.8641 84.0728 40.7375 84.0749 40.0411 83.4977C39.3447 82.9206 39.3422 81.9829 40.0356 81.4033L45.2192 77.0702C45.9126 76.4905 47.0392 76.4885 47.7356 77.0656C48.432 77.6428 48.4345 78.5805 47.7411 79.1601Z" fill="#ABABAB"/>
<path d="M28.546 73.7859L22.3666 78.9149C22.1517 79.0932 21.8038 79.0928 21.5896 78.914L20.0473 77.6268C19.833 77.4479 19.8335 77.1584 20.0484 76.98L26.2278 71.851C26.4427 71.6727 26.7906 71.6731 27.0049 71.8519L28.5471 73.1391C28.7614 73.318 28.7609 73.6075 28.546 73.7859Z" fill="#F1F1F1"/>
<path d="M25.933 83.4144L19.9486 78.6043C19.4247 78.1833 19.4101 77.4884 19.916 77.0524L20.3287 76.6967C20.8346 76.2607 21.6694 76.2486 22.1933 76.6696L28.1777 81.4797C28.7016 81.9008 28.7162 82.5956 28.2103 83.0316L27.7976 83.3873C27.2917 83.8233 26.4569 83.8355 25.933 83.4144Z" fill="#F1F1F1"/>
<path d="M38.9422 71.7771C38.2071 72.3784 38.1967 73.3619 38.9192 73.9737L45.0141 79.136C45.7365 79.7479 46.9182 79.7565 47.6533 79.1552C48.3885 78.5539 48.3987 77.5704 47.6763 76.9585L41.5814 71.7963C40.8589 71.1845 39.6774 71.1759 38.9422 71.7771Z" fill="#ABABAB"/>
<path d="M39.8415 84.3421L26.4667 72.8145C26.0451 72.4512 26.0573 71.8722 26.4939 71.5213L27.5457 70.6758C27.9823 70.3249 28.678 70.335 29.0996 70.6984L42.4743 82.2259C42.8959 82.5893 42.8838 83.1683 42.4472 83.5192L41.3953 84.3647C40.9588 84.7156 40.2631 84.7055 39.8415 84.3421Z" fill="#F1F1F1"/>
</g>
<defs>
<clipPath id="clip0">
<rect width="30" height="15" fill="white" transform="matrix(1 0 0 -1 19 85)"/>
</clipPath>
</defs>
</svg>
