<svg width="795" height="697" viewBox="0 0 795 697" fill="none" xmlns="http://www.w3.org/2000/svg">
<path d="M746.389 339.678C746.389 416.069 721.144 486.565 678.538 543.274C616.637 625.669 525.985 664.849 414.994 664.849C227.611 664.849 83.5991 527.062 83.5991 339.678C83.5991 230.968 118.942 134.199 198.464 72.1041C256.011 27.1672 328.429 0.391357 407.102 0.391357C594.486 0.391357 746.389 152.295 746.389 339.678Z" fill="#EDEDED"/>
<path d="M689.926 527.152C629.157 618.656 525.177 678.965 407.102 678.965C219.724 678.965 67.8154 527.057 67.8154 339.678C67.8154 221.603 128.124 117.624 219.628 56.8545C183.952 110.552 163.165 175.009 163.165 244.328C163.165 431.707 315.074 583.615 502.452 583.615C571.772 583.615 636.228 562.829 689.926 527.152Z" fill="#D4CFD5"/>
<path d="M754.794 19.7566L767.104 44.3776C767.412 44.9926 767.91 45.4916 768.525 45.7983L793.145 58.108C795.488 59.2792 795.488 62.6228 793.145 63.794L768.525 76.1037C767.91 76.412 767.411 76.9094 767.104 77.5244L754.794 102.145C753.623 104.488 750.279 104.488 749.108 102.145L736.798 77.526C736.49 76.911 735.993 76.412 735.378 76.1053L710.757 63.7956C708.414 62.6244 708.414 59.2808 710.757 58.1096L735.378 45.7999C735.993 45.4916 736.492 44.9942 736.798 44.3792L749.108 19.7582C750.279 17.4142 753.623 17.4142 754.794 19.7566Z" fill="#5D91B9"/>
<path d="M726.15 652.865H720.292C719.415 652.865 718.703 652.153 718.703 651.276V645.418C718.703 638.892 713.673 633.201 707.15 633.005C700.4 632.804 694.865 638.215 694.865 644.919V651.276C694.865 652.153 694.153 652.865 693.276 652.865H687.419C680.892 652.865 675.201 657.893 675.006 664.417C674.802 671.166 680.213 676.703 686.92 676.703H693.276C694.153 676.703 694.865 677.415 694.865 678.292V684.15C694.865 690.676 699.895 696.367 706.419 696.563C713.168 696.764 718.703 691.353 718.703 684.649V678.292C718.703 677.415 719.415 676.703 720.292 676.703H726.649C733.353 676.703 738.765 671.168 738.563 664.417C738.366 657.893 732.675 652.865 726.15 652.865Z" fill="#F3D332"/>
<path d="M51.4248 108.455H45.5672C44.6899 108.455 43.978 107.743 43.978 106.865V101.008C43.978 94.4811 38.9483 88.7903 32.4248 88.5948C25.6756 88.393 20.1405 93.8041 20.1405 100.509V106.865C20.1405 107.743 19.4286 108.455 18.5513 108.455H12.6937C6.16697 108.455 0.476167 113.483 0.2807 120.006C0.0772864 126.755 5.4884 132.292 12.1947 132.292H18.5513C19.4286 132.292 20.1405 133.004 20.1405 133.881V139.739C20.1405 146.266 25.1702 151.956 31.6937 152.152C38.4429 152.354 43.978 146.943 43.978 140.238V133.881C43.978 133.004 44.6899 132.292 45.5672 132.292H51.9238C58.6285 132.292 64.0396 126.757 63.8378 120.006C63.6408 113.483 57.9499 108.455 51.4248 108.455Z" fill="#F3D332"/>
<path d="M336.665 219.509C336.665 227.847 334.975 235.79 331.919 243.014C322.751 264.689 301.56 271.157 276.546 271.157C243.195 271.157 227.688 255.244 227.688 221.892C227.688 196.974 230.979 173.199 252.52 163.972C259.812 160.849 267.843 159.12 276.276 159.12C309.628 159.12 336.665 186.157 336.665 219.509Z" fill="#E1E1E1"/>
<path d="M438.416 539.074C436.712 552.772 430.547 564.825 421.558 573.956C408.828 586.888 391.744 583.44 372.345 581.028C339.248 576.912 314.447 557.264 318.563 524.167C322.679 491.07 352.845 467.577 385.942 471.693C419.039 475.809 442.532 505.977 438.416 539.074Z" fill="#E1E1E1"/>
<path d="M421.555 573.954C408.832 586.896 390.434 593.96 371.036 591.548C337.935 587.431 314.446 557.27 318.562 524.169C318.609 523.79 318.657 523.412 318.719 523.035C349.299 545.366 383.917 562.787 421.555 573.954Z" fill="#C9C9C9"/>
<path d="M522.281 124.819C522.281 131.852 520.294 138.42 516.854 143.994C510.416 154.422 499.916 158.818 486.761 158.818C466.574 158.818 452.813 145.34 452.813 125.153C452.813 110.546 457.748 97.605 470.134 91.7537C474.865 89.5193 480.15 88.2687 485.73 88.2687C505.917 88.2687 522.281 104.632 522.281 124.819Z" fill="#E1E1E1"/>
</svg>
