<?xml version="1.0" encoding="iso-8859-1"?>
<!-- Generator: Adobe Illustrator 19.0.0, SVG Export Plug-In . SVG Version: 6.00 Build 0)  -->
<svg version="1.1" id="Capa_1" xmlns="http://www.w3.org/2000/svg" xmlns:xlink="http://www.w3.org/1999/xlink" x="0px" y="0px"
	 viewBox="0 0 512 512" style="enable-background:new 0 0 512 512;" xml:space="preserve">
<path style="fill:#FD6244;" d="M376,439h-20v-20c0-11.05-8.95-20-20-20l-6.27-69.87l-6.86-76.56L316,176H196l-5.63,62.82
	l-7.52,83.76L176,399c-11.05,0-20,8.95-20,20v20h-20c-11.05,0-20,8.95-20,20v43h280v-43C396,447.95,387.05,439,376,439z"/>
<g>
	<polygon style="fill:#E3E3E3;" points="329.73,329.13 336,399 196,399 	"/>
	<path style="fill:#E3E3E3;" d="M316,136c11.05,0,20,8.95,20,20c0,5.52-2.24,10.52-5.86,14.14S321.52,176,316,176H196
		c-11.05,0-20-8.95-20-20c0-5.52,2.24-10.52,5.86-14.14S190.48,136,196,136C201.273,136,310.737,136,316,136z"/>
	<polygon style="fill:#E3E3E3;" points="316,176 322.87,252.57 182.85,322.58 190.37,238.82 	"/>
</g>
<path style="fill:#FD6244;" d="M316,70c-5.273,0-114.737,0-120,0c0-16.57,6.72-31.57,17.57-42.43C224.43,16.72,239.43,10,256,10
	C289.138,10,316,36.859,316,70z"/>
<path style="fill:#FED42D;" d="M196,70v66c5.273,0,114.737,0,120,0V70C310.727,70,201.263,70,196,70z"/>
<path d="M256,429c-5.52,0-10,4.48-10,10s4.48,10,10,10c5.52,0,10-4.48,10-10S261.52,429,256,429z"/>
<path d="M146,419v10h-10c-16.542,0-30,13.458-30,30v33H76c-5.523,0-10,4.478-10,10s4.477,10,10,10h360c5.523,0,10-4.478,10-10
	s-4.477-10-10-10h-30v-33c0-16.542-13.458-30-30-30h-10v-10c0-13.305-8.71-24.609-20.724-28.525
	c-0.834-9.297-17.712-197.492-18.517-206.464C337.854,179.751,346,168.957,346,156c0-13.036-8.361-24.152-20-28.28V80h10
	c5.523,0,10-4.478,10-10s-4.477-10-10-10h-10.713C320.503,26.368,291.593,0,256,0c-35.601,0-64.504,26.372-69.287,60H176
	c-5.523,0-10,4.478-10,10s4.477,10,10,10h10v47.703c-11.454,4.041-20,15.03-20,28.297c0,12.751,8.001,23.663,19.243,27.998
	c-0.392,4.366-18.126,202.1-18.518,206.477C154.71,394.391,146,405.695,146,419z M205.144,186h68.498l-71.714,35.86L205.144,186z
	 M325.063,389h-88.328l84.375-44.084L325.063,389z M199.828,245.272l107.523-53.766l4.948,55.17l-117.883,58.942L199.828,245.272z
	 M192.316,329.027l121.902-60.951l4.958,55.284L193.545,389h-6.608L192.316,329.027z M346,429h-49.58c-5.523,0-10,4.478-10,10
	s4.477,10,10,10H376c5.514,0,10,4.486,10,10v33H126v-33c0-5.514,4.486-10,10-10h79.58c5.523,0,10-4.478,10-10s-4.477-10-10-10H166
	v-10c0-5.514,4.486-10,10-10h19.979c0.01,0,0.019,0.002,0.029,0.002c0.011,0,0.022-0.002,0.033-0.002h139.927
	c0.007,0,0.014,0.001,0.021,0.001c0.005,0,0.011-0.001,0.016-0.001c5.512,0.003,9.995,4.488,9.995,10V429z M206,126V80h40v46H206z
	 M266,80h40v46h-40V80z M256,20c24.45,0,44.439,17.411,49.002,40h-98.003C211.56,37.412,231.553,20,256,20z M196,146h120
	c5.514,0,10,4.486,10,10c0,5.521-4.479,10-10,10H196c-5.514,0-10-4.486-10-10C186,150.479,190.479,146,196,146z"/>
<path d="M365.813,188.879l68.28,28.28c5.124,2.119,10.959-0.327,13.065-5.413c2.113-5.103-0.31-10.952-5.412-13.065l-68.28-28.28
	c-5.103-2.111-10.953,0.311-13.065,5.413C358.288,180.916,360.711,186.766,365.813,188.879z"/>
<path d="M447.159,60.254c-2.113-5.104-7.963-7.524-13.065-5.413l-68.28,28.28c-5.103,2.113-7.525,7.963-5.412,13.065
	c2.11,5.093,7.95,7.53,13.065,5.413l68.28-28.28C446.849,71.206,449.272,65.356,447.159,60.254z"/>
<path d="M376,126c-5.523,0-10,4.478-10,10s4.477,10,10,10h40c5.523,0,10-4.478,10-10s-4.477-10-10-10H376z"/>
<path d="M151.599,96.187c2.113-5.103-0.31-10.952-5.412-13.065l-68.28-28.28c-5.104-2.111-10.952,0.31-13.065,5.413
	c-2.113,5.103,0.31,10.952,5.412,13.065l68.28,28.28C143.657,103.719,149.493,101.273,151.599,96.187z"/>
<path d="M64.841,211.746c2.11,5.095,7.952,7.529,13.065,5.413l68.28-28.28c5.103-2.113,7.525-7.963,5.412-13.065
	s-7.964-7.523-13.065-5.413l-68.28,28.28C65.151,200.794,62.728,206.644,64.841,211.746z"/>
<path d="M96,126c-5.523,0-10,4.478-10,10s4.477,10,10,10h40c5.523,0,10-4.478,10-10s-4.477-10-10-10H96z"/>
<g>
</g>
<g>
</g>
<g>
</g>
<g>
</g>
<g>
</g>
<g>
</g>
<g>
</g>
<g>
</g>
<g>
</g>
<g>
</g>
<g>
</g>
<g>
</g>
<g>
</g>
<g>
</g>
<g>
</g>
</svg>
