<svg width="57" height="57" viewBox="0 0 57 57" fill="none" xmlns="http://www.w3.org/2000/svg">
<path d="M28.4997 44.6227C37.4041 44.6227 44.6226 37.4041 44.6226 28.4997C44.6226 19.5952 37.4041 12.3767 28.4997 12.3767C19.5952 12.3767 12.3767 19.5952 12.3767 28.4997C12.3767 37.4041 19.5952 44.6227 28.4997 44.6227Z" fill="#FFD347"/>
<path d="M28.5 6.32889C28.0243 6.32889 27.6387 5.94336 27.6387 5.46755V0.861346C27.6387 0.385529 28.0243 0 28.5 0C28.9757 0 29.3613 0.385529 29.3613 0.861346V5.46766C29.3613 5.94336 28.9757 6.32889 28.5 6.32889Z" fill="#FFD347"/>
<path d="M16.9846 9.4148C16.6869 9.4148 16.3974 9.26038 16.2379 8.98407L13.9348 4.99496C13.697 4.58304 13.8381 4.05624 14.2501 3.81833C14.6621 3.58076 15.1888 3.72148 15.4267 4.13361L17.7298 8.12272C17.9676 8.53464 17.8265 9.06144 17.4145 9.29935C17.2788 9.37761 17.1307 9.4148 16.9846 9.4148Z" fill="#FFD347"/>
<path d="M8.55256 17.8452C8.4065 17.8452 8.25832 17.8081 8.12273 17.7297L4.13362 15.4266C3.7217 15.1888 3.58054 14.662 3.81834 14.25C4.05613 13.838 4.58294 13.697 4.99496 13.9347L8.98407 16.2378C9.39599 16.4756 9.53715 17.0024 9.29935 17.4144C9.13971 17.6908 8.85025 17.8452 8.55256 17.8452Z" fill="#FFD347"/>
<path d="M5.46755 29.3613H0.861346C0.385641 29.3613 0 28.9758 0 28.5C0 28.0242 0.385641 27.6386 0.861346 27.6386H5.46766C5.94336 27.6386 6.329 28.0242 6.329 28.5C6.329 28.9758 5.94325 29.3613 5.46755 29.3613Z" fill="#FFD347"/>
<path d="M4.56501 43.1807C4.26732 43.1807 3.97786 43.0263 3.81833 42.75C3.58053 42.3381 3.72159 41.8113 4.13361 41.5734L8.12272 39.2703C8.53464 39.0328 9.06144 39.1735 9.29935 39.5856C9.53715 39.9975 9.39609 40.5243 8.98407 40.7622L4.99496 43.0653C4.85925 43.1435 4.71107 43.1807 4.56501 43.1807Z" fill="#FFD347"/>
<path d="M14.68 53.2972C14.5339 53.2972 14.3857 53.26 14.2501 53.1817C13.8382 52.9439 13.697 52.4171 13.9348 52.005L16.2379 48.0159C16.4757 47.6039 17.0025 47.463 17.4145 47.7007C17.8264 47.9384 17.9676 48.4653 17.7298 48.8773L15.4267 52.8664C15.2671 53.1427 14.9776 53.2972 14.68 53.2972Z" fill="#FFD347"/>
<path d="M28.5 57C28.0243 57 27.6387 56.6145 27.6387 56.1387V51.5324C27.6387 51.0565 28.0243 50.671 28.5 50.671C28.9757 50.671 29.3613 51.0565 29.3613 51.5324V56.1387C29.3613 56.6145 28.9757 57 28.5 57Z" fill="#FFD347"/>
<path d="M42.32 53.2972C42.0223 53.2972 41.7329 53.1428 41.5734 52.8665L39.2703 48.8774C39.0325 48.4655 39.1736 47.9387 39.5856 47.7008C39.9975 47.4632 40.5243 47.6039 40.7622 48.0161L43.0653 52.0052C43.3031 52.4171 43.162 52.9439 42.75 53.1818C42.6143 53.2601 42.4662 53.2972 42.32 53.2972Z" fill="#FFD347"/>
<path d="M52.435 43.1807C52.2889 43.1807 52.1408 43.1436 52.0052 43.0652L48.016 40.7621C47.6041 40.5243 47.463 39.9975 47.7008 39.5855C47.9386 39.1735 48.4654 39.0325 48.8774 39.2702L52.8665 41.5733C53.2784 41.8111 53.4196 42.3379 53.1818 42.7499C53.0221 43.0262 52.7327 43.1807 52.435 43.1807Z" fill="#FFD347"/>
<path d="M56.1387 29.3613H51.5324C51.0567 29.3613 50.671 28.9758 50.671 28.5C50.671 28.0242 51.0567 27.6386 51.5324 27.6386H56.1387C56.6144 27.6386 57 28.0242 57 28.5C57 28.9758 56.6144 29.3613 56.1387 29.3613Z" fill="#FFD347"/>
<path d="M48.4474 17.8452C48.1497 17.8452 47.8603 17.6908 47.7008 17.4145C47.463 17.0026 47.604 16.4758 48.016 16.2379L52.0051 13.9348C52.4171 13.6972 52.9439 13.838 53.1818 14.2501C53.4196 14.662 53.2785 15.1888 52.8665 15.4267L48.8774 17.7298C48.7417 17.808 48.5935 17.8452 48.4474 17.8452Z" fill="#FFD347"/>
<path d="M40.0155 9.41481C39.8694 9.41481 39.7212 9.37763 39.5856 9.29925C39.1737 9.06146 39.0325 8.53465 39.2703 8.12263L41.5734 4.13352C41.8112 3.72149 42.338 3.58055 42.75 3.81824C43.1619 4.05603 43.3031 4.58284 43.0653 4.99486L40.7622 8.98397C40.6026 9.2604 40.313 9.41481 40.0155 9.41481Z" fill="#FFD347"/>
<path d="M28.5 12.3775C27.9164 12.3775 27.3402 12.4093 26.7726 12.4697C34.8645 13.3317 41.1677 20.1793 41.1677 28.4999C41.1677 36.8205 34.8644 43.6683 26.7726 44.5303C27.3402 44.5908 27.9163 44.6224 28.5 44.6224C37.4043 44.6224 44.6226 37.4041 44.6226 28.4999C44.6226 19.5957 37.4044 12.3775 28.5 12.3775Z" fill="#FFBE31"/>
</svg>
